/* XPM */
static char *aywa32_xpm[] = {
/* width height num_colors chars_per_pixel */
"    32    32      256            2",
/* colors */
"`` c #040204",
"`. c #94823c",
"`# c #3c426c",
"`a c #d4c244",
"`b c #040284",
"`c c #0c227c",
"`d c #a4965c",
"`e c #645e44",
"`f c #0422bc",
"`g c #b4ae94",
"`h c #ccc6bc",
"`i c #2c367c",
"`j c #bcae5c",
"`k c #041ab4",
"`l c #5c66a4",
"`m c #eceabc",
"`n c #7482a4",
"`o c #04127c",
"`p c #2c42ac",
"`q c #1c2e84",
"`r c #04169c",
"`s c #746e3c",
"`t c #1c3ec4",
"`u c #fcf6bc",
"`v c #1c2a74",
"`w c #b4ae7c",
"`x c #0426d4",
"`y c #040254",
"`z c #445694",
"`A c #0422a4",
"`B c #a49674",
"`C c #041a8c",
"`D c #041a4c",
"`E c #9c9e9c",
"`F c #bcba84",
"`G c #8c866c",
"`H c #e4e27c",
"`I c #a4aac4",
"`J c #5c5e6c",
"`K c #2c3aa4",
"`L c #6476cc",
"`M c #e4e6e4",
"`N c #34428c",
"`O c #b4a244",
"`P c #042acc",
"`Q c #04128c",
"`R c #847e5c",
"`S c #f4f6e4",
"`T c #040a5c",
"`U c #142a9c",
"`V c #948a3c",
"`W c #ccc27c",
"`X c #dcd6c4",
"`Y c #243a84",
"`Z c #5c72c4",
"`0 c #445abc",
"`1 c #142ea4",
"`2 c #b4ae8c",
"`3 c #042ee4",
"`4 c #0c2ab4",
"`5 c #6c6254",
"`6 c #041e9c",
"`7 c #847a4c",
"`8 c #0426e4",
".` c #0422ac",
".. c #849ae4",
".# c #b4bebc",
".a c #aca264",
".b c #948a54",
".c c #dcd294",
".d c #1c36ac",
".e c #4c4e5c",
".f c #142a84",
".g c #5c5a54",
".h c #0422cc",
".i c #ccba3c",
".j c #041ed4",
".k c #6c82f4",
".l c #bcae74",
".m c #545e94",
".n c #b4aa74",
".o c #eceedc",
".p c #fcfef4",
".q c #040e6c",
".r c #6c7294",
".s c #1c329c",
".t c #0426bc",
".u c #c4bea4",
".v c #d4cea4",
".w c #f4f2d4",
".x c #04167c",
".y c #1c42e4",
".z c #746e4c",
".A c #042ad4",
".B c #0c1e94",
".C c #04126c",
".D c #ccbe74",
".E c #bcaa3c",
".F c #04168c",
".G c #040e5c",
".H c #d4ca94",
".I c #343e7c",
".J c #5c5e54",
".K c #bcb27c",
".L c #f4eee4",
".M c #6c7aa4",
".N c #3c4a74",
".O c #040e84",
".P c #0c2694",
".Q c #b4b2b4",
".R c #243294",
".S c #041ecc",
".T c #e4e6cc",
".U c #8492bc",
".V c #041a9c",
".W c #fcfadc",
".X c #2c3a74",
".Y c #040264",
".Z c #4c5a9c",
".0 c #0c229c",
".1 c #a49e6c",
".2 c #041e94",
".3 c #949ab4",
".4 c #c4ba84",
".5 c #9c966c",
".6 c #f4f29c",
".7 c #acb2cc",
".8 c #646a6c",
"#` c #444e94",
"#. c #546eec",
"## c #3452e4",
"#a c #9ca6dc",
"#b c #0c3aec",
"#c c #bcbac4",
"#d c #647ef4",
"#e c #7c7e84",
"#f c #dcdae4",
"#g c #142ebc",
"#h c #acbadc",
"#i c #5c668c",
"#j c #ac9e44",
"#k c #4c62cc",
"#l c #fcfafc",
"#m c #bcb69c",
"#n c #646e9c",
"#o c #bcb684",
"#p c #2442c4",
"#q c #e4dec4",
"#r c #243a94",
"#s c #748af4",
"#t c #8c8a84",
"#u c #ccc694",
"#v c #7c86b4",
"#w c #7c722c",
"#x c #3c467c",
"#y c #0c2ebc",
"#z c #747694",
"#A c #fcee8c",
"#B c #ccba4c",
"#C c #b4aa8c",
"#D c #242a64",
"#E c #c4b254",
"#F c #acaebc",
"#G c #0c26ac",
"#H c #b4a65c",
"#I c #9c8e5c",
"#J c #ecead4",
"#K c #9c9ebc",
"#L c #fcfae4",
"#M c #8c7e4c",
"#N c #8c9ee4",
"#O c #4c526c",
"#P c #6c76a4",
"#Q c #d4d2b4",
"#R c #041274",
"#S c #f4f2ec",
"#T c #142284",
"#U c #9c8a44",
"#V c #2c3a7c",
"#W c #4456a4",
"#X c #041eac",
"#Y c #142a94",
"#Z c #041ee4",
"#0 c #1c32ac",
"#1 c #bcaa4c",
"#2 c #a49e7c",
"#3 c #3c4674",
"#4 c #cccab4",
"#5 c #2c3eac",
"#6 c #948e5c",
"#7 c #dcd68c",
"#8 c #bcb26c",
"a` c #54629c",
"a. c #041664",
"a# c #f4f2dc",
"aa c #24368c",
"ab c #0c26a4",
"ac c #c4be7c",
"ad c #041eb4",
"ae c #ccc67c",
"af c #042ae4",
"ag c #fcfedc",
"ah c #0422c4",
"ai c #041284",
"aj c #0426dc",
"ak c #041a94",
"al c #b4a24c",
"am c #041294",
"an c #040a64",
"ao c #948a44",
"ap c #142eac",
"aq c #041ea4",
"ar c #0422b4",
"as c #5c5a5c",
"at c #fcfefc",
"au c #1c32a4",
"av c #0426c4",
"aw c #041684",
"ax c #746e54",
"ay c #042adc",
"az c #041694",
"aA c #040e64",
"aB c #5c5e5c",
"aC c #040e8c",
"aD c #041aa4",
"aE c #04026c",
"aF c #ccba54",
"aG c #bcb274",
"aH c #000000",
"aI c #000000",
"aJ c #000000",
"aK c #000000",
"aL c #000000",
"aM c #000000",
"aN c #000000",
"aO c #000000",
"aP c #000000",
"aQ c #000000",
"aR c #000000",
"aS c #000000",
"aT c #000000",
"aU c #000000",
"aV c #000000",
"aW c #000000",
"aX c #000000",
"aY c #000000",
"aZ c #000000",
"a0 c #000000",
"a1 c #000000",
"a2 c #000000",
"a3 c #000000",
"a4 c #000000",
"a5 c #000000",
"a6 c #000000",
"a7 c #000000",
"a8 c #000000",
/* pixels */
"`````b.G`T`T`T`T.G`T`T`T`T`T`T`T`T`T`T`T`T`T`T`T`T`T`T`TaA``````",
"```T`T`Tan`T`T`T.G`T.GanaAaA.q.q.CaAaAaAan`T`T.G`T`T.G`T`T`T`y``",
"aE`Tan.G`T.G`T`T.GaAaA.q.C#R.C#R.C#R#R.q.CaAaA`T.G`T`T.GaAanan``",
"`T`T`T`T`T`T.GaAaA.q#R#R`o`o.x.x.x`o.x#R#R#R.qaAan.G`T`T`T`T`T`T",
"`T.G`T.G`T.GaA.q#R#R.xawawaw.F.F.F.O.Oaiaw`o#R#RaAaA`T`T.G`T`T`T",
"`Tan`T`T`TaA.q#R`oawaw.F`Cakakaz.sa`a`#raiawaw.x#R.qaA`T`T.G`T`T",
"`T.G`T.GaA.q#R.xaw.Fakak`6.V.V#n.T.p.p.o`n.F.F.x`o#R.C.G`T`T`Tan",
"`T`T`TaA.q#R.xaw`Cak`6`6aD`A#v#Satatatatag.ram`Caw`o.C.q.G`T.G`T",
"`T.G`TaA#R`oaw.Fak.Vaq#X.`#Katat#J#q.Latat#m#Yaz`Caw`o.C.q.G`Tan",
"`T`TaA.C`o.x`Cak`6aq#Xad.U.p.W.H#t#i#e`Xat#c`Nazak.F.x#R.qaA`T`T",
"`TaAaA#R`o.Fak.Vaq.``k`0.W.w.4.Zadah.t.r`S#f.m#5.2akaw.x.CaA`T`T",
"`Tan.C`oaw`Cakaq#Xar.t.#.6.D`z.S.A.A.S#y`h#l`M`E`caz`Cai#R.qaA`T",
".GaA.q.xaw`C.Vaq.``k#k.H#Has.hayajay###N#J`S`was`c.V`Caw`o.Can`T",
"anaA#R`o.Fak`6#Xar`f`Iac`Rad`8#b#.#h`u#Aae`m.8.0#X.Vakaw.x.CaA`T",
".G.q#R.x`Cak`6.`ad#p#4#H#x.y.k.7.4aF.b`N.r`Has`Aaq`6akaw`o#RaAan",
"aAaA#Raw.Fakaq#X`k`Z.c.n.3.Q.5.z#O`4.h#Z.M#j.e#0.`aqak`C.x#R.q.G",
".G.q#R.x`Cakaq.`#g`Iae`F.n`G#z`L#d#s..#a`g#j#u.u`i.Vak.F.x#RaAaA",
"anaA#Raw.F.2aD`p#4#7aG.a`w#C#2.5#I.baoao#1#j`V`s#D.V.2.F.x#RaA`T",
".G.q.C.x.Fak.V`1.1ac`j#M.g.e`#.X`iaa.s#`aF.b.Iaq`A`6`Caw`o.CaAan",
".GaA#R`oawak.Vaq`K#o#E#3.S`xayafafaf`8#P`a`7.Paraqakakaw`o.CaA`T",
"`Tan.C#Raw`CakaD.d.K.E#3.h`P.A.A.A`x`t.l.EaB#X#X`6ak.F.x#R.qan`T",
"`T.G.q#R.xawak.V.s`d#w`qah`P`P`P`P.h#W.i`.`Y#Xaqakakaw.x#RaA.G`T",
"an`TaA.q`oaw`Caz`U`5.f#Xar.t`f.tah.t.t.z`e.2aq`6ak`Caw#R.qaA`Tan",
".G`T.G.q.C.xaw`C`6.2.V.`.`arararararar`U.faD`6ak.Faw`o.CaA.G`T`T",
"`T`T`TaA.q#R.x.F`Cak`6aqaqaq.`.`.`#X#XaqaD`6ak.Faw.x#R.qaA`T`Tan",
"aA`T.G`TaA.C#R`oaw.Fakak.V`6aqaqaq`6`6`6akak.Faw.x#R.qaA`T`T.G`T",
"`T`T`T`T.GaA.q#R.xawaw`Cakakakakakakakak.Fawaw`o#R.q.G`T`T`T`T`T",
".G`T.G`T`T`TaA.q#R`o.xawaw.F`C.F`C.F.Faw.x.x#R#RaAaA.G`T.G`T.G`T",
".Gan`T`T`T`T.GaAaA.C#R#R`o.x.xawaw.x.x`o.x#R.CaAaA`T`T`T`T`TaA`T",
"`y.GaA`T.G`T`T`TaAanaA.C#R#R#R#R#R#R#R.C.qaAaA`T`T`T.G`T.Gan.G`b",
"``.G`T.Gan.G`T`T.G.GanaAaAaAaA.q.qaAaAaAaA`T`T.G.G`T.Gan.G`Ta.``",
"`````D`T`T.G.G`T.G`T.G`T`T.Gan.GaA`T`T`T`T.G`T.G`T`T.G.G`T``````"
};
