/* XPM */
static char *aywa16_xpm[] = {
/* width height num_colors chars_per_pixel */
"    16    16      256            2",
/* colors */
"`` c #000000",
"`. c #000a61",
"`# c #000b5e",
"`a c #000a5c",
"`b c #000c5b",
"`c c #000a5e",
"`d c #000c62",
"`e c #000a5d",
"`f c #000b5d",
"`g c #000d62",
"`h c #000d60",
"`i c #010b5f",
"`j c #010b5e",
"`k c #010d63",
"`l c #010e6a",
"`m c #011071",
"`n c #011275",
"`o c #001074",
"`p c #000e70",
"`q c #010c62",
"`r c #010c5e",
"`s c #00075e",
"`t c #010b5c",
"`u c #010e65",
"`v c #011274",
"`w c #011480",
"`x c #011687",
"`y c #001389",
"`z c #12248b",
"`A c #112388",
"`B c #00107d",
"`C c #011173",
"`D c #010d64",
"`E c #011278",
"`F c #011788",
"`G c #011a95",
"`H c #00169b",
"`I c #5766b0",
"`J c #dfe2e2",
"`K c #dbdee4",
"`L c #4e5c9f",
"`M c #001185",
"`N c #011276",
"`O c #010e64",
"`P c #000b5f",
"`Q c #010c61",
"`R c #011b9a",
"`S c #0019a6",
"`T c #6978c2",
"`U c #f4f0da",
"`V c #c3c2bb",
"`W c #e7e6df",
"`X c #c5c7c9",
"`Y c #071b8f",
"`Z c #001588",
"`0 c #011172",
"`1 c #010f6a",
"`2 c #011581",
"`3 c #001aa8",
"`4 c #3049b9",
"`5 c #e7e3b2",
"`6 c #717aa0",
"`7 c #021dbd",
"`8 c #4055ba",
".` c #dfdedd",
".. c #636ca3",
".# c #01198d",
".a c #01147f",
".b c #010e69",
".c c #000c5f",
".d c #011171",
".e c #011d9e",
".f c #011eb6",
".g c #8b93ac",
".h c #7b7c77",
".i c #052bdc",
".j c #435edb",
".k c #99a1bb",
".l c #e3e1ba",
".m c #616785",
".n c #021996",
".o c #001687",
".p c #011070",
".q c #000d61",
".r c #01188d",
".s c #001aa3",
".t c #1834be",
".u c #b9b590",
".v c #6c759e",
".w c #7882b1",
".x c #848992",
".y c #5764ac",
".z c #9b9978",
".A c #37468c",
".B c #021da6",
".C c #01178a",
".D c #000b62",
".E c #00178c",
".F c #0821a5",
".G c #888faa",
".H c #c4ba79",
".I c #ada372",
".J c #878580",
".K c #707799",
".L c #818394",
".M c #aea25a",
".N c #827f69",
".O c #0b218f",
".P c #00178d",
".Q c #000c61",
".R c #011789",
".S c #041c9f",
".T c #85878a",
".U c #a09660",
".V c #2b3d99",
".W c #1f39ad",
".X c #1630b5",
".Y c #556097",
".Z c #9b924f",
".0 c #0f2696",
".1 c #011c9c",
".2 c #001599",
".3 c #4f588a",
".4 c #6b6a5f",
".5 c #0020c8",
".6 c #0027d4",
".7 c #0023d7",
".8 c #7f8079",
"#` c #65655f",
"#. c #001aaa",
"## c #011a94",
"#a c #010d62",
"#b c #01168b",
"#c c #15288b",
"#d c #0c2497",
"#e c #0121b4",
"#f c #0223b9",
"#g c #0122bb",
"#h c #233792",
"#i c #172a8c",
"#j c #001a9b",
"#k c #011787",
"#l c #011273",
"#m c #010e66",
"#n c #011379",
"#o c #00168b",
"#p c #001998",
"#q c #021c9e",
"#r c #021ea3",
"#s c #001aa0",
"#t c #001997",
"#u c #011277",
"#v c #000c5e",
"#w c #010b5d",
"#x c #011580",
"#y c #01157f",
"#z c #010c5f",
"#A c #010f6b",
"#B c #010c5d",
"#C c #000b60",
"#D c #000c5c",
"#E c #000c5d",
"#F c #000000",
"#G c #000000",
"#H c #000000",
"#I c #000000",
"#J c #000000",
"#K c #000000",
"#L c #000000",
"#M c #000000",
"#N c #000000",
"#O c #000000",
"#P c #000000",
"#Q c #000000",
"#R c #000000",
"#S c #000000",
"#T c #000000",
"#U c #000000",
"#V c #000000",
"#W c #000000",
"#X c #000000",
"#Y c #000000",
"#Z c #000000",
"#0 c #000000",
"#1 c #000000",
"#2 c #000000",
"#3 c #000000",
"#4 c #000000",
"#5 c #000000",
"#6 c #000000",
"#7 c #000000",
"#8 c #000000",
"a` c #000000",
"a. c #000000",
"a# c #000000",
"aa c #000000",
"ab c #000000",
"ac c #000000",
"ad c #000000",
"ae c #000000",
"af c #000000",
"ag c #000000",
"ah c #000000",
"ai c #000000",
"aj c #000000",
"ak c #000000",
"al c #000000",
"am c #000000",
"an c #000000",
"ao c #000000",
"ap c #000000",
"aq c #000000",
"ar c #000000",
"as c #000000",
"at c #000000",
"au c #000000",
"av c #000000",
"aw c #000000",
"ax c #000000",
"ay c #000000",
"az c #000000",
"aA c #000000",
"aB c #000000",
"aC c #000000",
"aD c #000000",
"aE c #000000",
"aF c #000000",
"aG c #000000",
"aH c #000000",
"aI c #000000",
"aJ c #000000",
"aK c #000000",
"aL c #000000",
"aM c #000000",
"aN c #000000",
"aO c #000000",
"aP c #000000",
"aQ c #000000",
"aR c #000000",
"aS c #000000",
"aT c #000000",
"aU c #000000",
"aV c #000000",
"aW c #000000",
"aX c #000000",
"aY c #000000",
"aZ c #000000",
"a0 c #000000",
"a1 c #000000",
"a2 c #000000",
"a3 c #000000",
"a4 c #000000",
"a5 c #000000",
"a6 c #000000",
"a7 c #000000",
"a8 c #000000",
/* pixels */
"```.`#`a`b`a`c`d`d`c`e`a`e`f`g``",
"`h`i`i`j`k`l`m`n`o`p`l`q`j`i`r`s",
"`f`j`t`u`v`w`x`y`z`A`B`C`D`t`i`e",
"`f`t`u`E`F`G`H`I`J`K`L`M`N`O`j`P",
"`a`Q`v`F`R`S`T`U`V`W`X`Y`Z`0`q`P",
"`#`1`2`G`3`4`5`6`7`8.`...#.a.b`f",
".c.d`F.e.f.g.h.i.j.k.l.m.n.o.p`P",
".q`n.r.s.t.u.v.w.x.y.z.A.B.C`v.D",
".q`n.E.F.G.H.I.J.K.L.M.N.O.P`n.Q",
".c.d.R.S.T.U.V.W.X.Y.Z.0.1`x`m`P",
"`f`1`2.2.3.4.5.6.7.8#`#.##.a`l`f",
"`e#a`n#b#c#d#e#f#g#h#i#j#k#l#a`f",
"`f`t#m#n#o#p#q#r#r#s#t#k#u`u`j`a",
"#v`j#w#m`n#x`F.r.r`F#y`v`u`t`i`f",
"`##z`i#w#a#A.d`N`N.d`1#a#B`i`j#C",
"``#D`##E#D#v.c`g`g#v`f#D#E#v#C``"
};
