/* XPM */
static char *aywa64_xpm[] = {
/* width height num_colors chars_per_pixel */
"    64    64      256            2",
/* colors */
"`` c #040204",
"`. c #94822c",
"`# c #d4c344",
"`a c #44424c",
"`b c #7f839f",
"`c c #b4a238",
"`d c #5c5546",
"`e c #040284",
"`f c #c8c4a8",
"`g c #04229c",
"`h c #dce2bc",
"`i c #5c66a4",
"`j c #c4b03e",
"`k c #0425c8",
"`l c #746b35",
"`m c #8c8264",
"`n c #2743c4",
"`o c #e4e3d6",
"`p c #aca472",
"`q c #f0e664",
"`r c #646a64",
"`s c #1c3294",
"`t c #14226c",
"`u c #9c9349",
"`v c #a4aabc",
"`w c #d4cfaf",
"`x c #cec47a",
"`y c #3c4474",
"`z c #847324",
"`A c #f4f2dc",
"`B c #bcb478",
"`C c #c4b96c",
"`D c #0432f0",
"`E c #9c9367",
"`F c #041686",
"`G c #1e2e8f",
"`H c #f8f6a4",
"`I c #041eaf",
"`J c #040251",
"`K c #646567",
"`L c #4a5baa",
"`M c #0422ac",
"`N c #b4ac75",
"`O c #04125c",
"`P c #4c4e58",
"`Q c #7c8ad4",
"`R c #aca25c",
"`S c #a4943f",
"`T c #d9d9d7",
"`U c #625e3e",
"`V c #e4d478",
"`W c #041a91",
"`X c #8e8456",
"`Y c #3c3634",
"`Z c #f4f3f4",
"`0 c #949890",
"`1 c #ccbb48",
"`2 c #0424dc",
"`3 c #6c6a4c",
"`4 c #b4b5b1",
"`5 c #847847",
"`6 c #a49854",
"`7 c #e7d147",
"`8 c #bcc6d4",
".` c #6c7acc",
".. c #2437a7",
".# c #ece8e3",
".a c #3c4369",
".b c #8c949c",
".c c #f4edb1",
".d c #7c725c",
".e c #c4b97e",
".f c #f4f4c2",
".g c #3c5af4",
".h c #b4ad8e",
".i c #bca946",
".j c #6c769c",
".k c #fcf65c",
".l c #dcdab4",
".m c #ccc391",
".n c #444e74",
".o c #1432cc",
".p c #04055d",
".q c #0c2cac",
".r c #6c6030",
".s c #041da0",
".t c #142884",
".u c #7c7334",
".v c #978e6c",
".w c #3c4ea4",
".x c #041375",
".y c #ac9c30",
".z c #b8bcd4",
".A c #c4b353",
".B c #a7a389",
".C c #847a28",
".D c #5466b0",
".E c #0423b7",
".F c #8c8a4c",
".G c #323974",
".H c #b4aa4c",
".I c #ccccac",
".J c #2c3c8f",
".K c #fcfede",
".L c #c7be73",
".M c #a49c71",
".N c #bcae71",
".O c #54564c",
".P c #b7ab5f",
".Q c #fcfefb",
".R c #a49e8c",
".S c #042de0",
".T c #b8baac",
".U c #4c4a5c",
".V c #fcfec5",
".W c #040c5f",
".X c #101d74",
".Y c #998b31",
".Z c #dcd06c",
".0 c #b3a447",
".1 c #042ad1",
".2 c #7c6e32",
".3 c #888890",
".4 c #f0e48c",
".5 c #202c7c",
".6 c #b4b294",
".7 c #545154",
".8 c #8c96cc",
"#` c #d4d8f4",
"#. c #94a6f8",
"## c #3450e4",
"#a c #ccd5f7",
"#b c #acbafc",
"#c c #9492ac",
"#d c #fcf999",
"#e c #646e84",
"#f c #4456a4",
"#g c #dcd597",
"#h c #7c7ea0",
"#i c #7c7c88",
"#j c #143cec",
"#k c #ccc26c",
"#l c #4c6aec",
"#m c #8c8e9c",
"#n c #6c7199",
"#o c #748af4",
"#p c #b4c2fc",
"#q c #48539c",
"#r c #74746c",
"#s c #2046ec",
"#t c #6078ec",
"#u c #7c7448",
"#v c #3c4a94",
"#w c #5c6084",
"#x c #2c3eb4",
"#y c #807e60",
"#z c #f4ee7c",
"#A c #e1e3f7",
"#B c #8892c0",
"#C c #5c5a58",
"#D c #d4cfc1",
"#E c #344bc4",
"#F c #3c3e74",
"#G c #d4cb94",
"#H c #1c3bcc",
"#I c #c4bea4",
"#J c #141a54",
"#K c #e4ded4",
"#L c #74768c",
"#M c #ecde7c",
"#N c #9c9ca8",
"#O c #545674",
"#P c #c4cafc",
"#Q c #040e94",
"#R c #7c82bc",
"#S c #142579",
"#T c #ccbc58",
"#U c #eceac7",
"#V c #e0dec0",
"#W c #9c8d56",
"#X c #646eb4",
"#Y c #9c9a54",
"#Z c #3c3a44",
"#0 c #243ebc",
"#1 c #f1eedc",
"#2 c #706630",
"#3 c #fce65c",
"#4 c #605e50",
"#5 c #6476bc",
"#6 c #747ebc",
"#7 c #545eac",
"#8 c #041ecc",
"a` c #8c9aec",
"a. c #4c4a51",
"a# c #645a3c",
"aa c #e4eacc",
"ab c #746a5c",
"ac c #acb2ac",
"ad c #dcd6ac",
"ae c #d4ca84",
"af c #0c3af4",
"ag c #fcfeb0",
"ah c #8492dc",
"ai c #9c9e90",
"aj c #ac9e58",
"ak c #444a6c",
"al c #343e6c",
"am c #8c8e84",
"an c #dcdef4",
"ao c #e4da8c",
"ap c #c4c2bc",
"aq c #94925c",
"ar c #94927c",
"as c #34344c",
"at c #1c38b8",
"au c #5064c0",
"av c #948a44",
"aw c #e8d648",
"ax c #ccbe7c",
"ay c #4462ec",
"az c #acaa84",
"aA c #c4b644",
"aB c #8c8a74",
"aC c #acaa74",
"aD c #444a74",
"aE c #bcba84",
"aF c #040a54",
"aG c #847e4c",
"aH c #847e74",
"aI c #ecee94",
"aJ c #746644",
"aK c #948640",
"aL c #847638",
"aM c #041698",
"aN c #142996",
"aO c #ac9a40",
"aP c #dcc23c",
"aQ c #0c2398",
"aR c #e4e4c6",
"aS c #646a98",
"aT c #24348c",
"aU c #1c2464",
"aV c #fcf6dc",
"aW c #0c36e4",
"aX c #848edc",
"aY c #b4a65c",
"aZ c #0c1d89",
"a0 c #9c9888",
"a1 c #d4be3c",
"a2 c #746e44",
"a3 c #bcb6a4",
"a4 c #c4cae4",
"a5 c #444664",
"a6 c #e4dea8",
"a7 c #8c7d31",
"a8 c #948e57",
/* pixels */
"`````````````JaF.WaF.p.W.p.W.paF.W.p.W.p.W.paF.p.W.paF.W.paF.W.W.W.paF.p.W.paF.W.p.W.p.p.W.p.p.W.p.p.W.p.p.W.p.W.W``````````````",
"`````````O.WaF.W.W.W.W.W.WaF.W.W.W.W.WaF.W.W.W.W.W.W.W.W.W.W.W.W.W.W.W.W.W.W.W.W.WaF.W.WaF.W.WaF.W.WaF.W.WaF.W.WaF.W.p``````````",
"``````aF.W.W.W.W.W.W.WaF.W.W.W.W.WaF.W.W.W.W.W.W.W.W.W.W.W.x.W.x.W.x.W.W.W.W.W.W.W.W.W.W.W.W.W.W.WaF.W.W.W.W.W.W.W.W.W.W`J``````",
"````.W.W.W.WaF.WaF.W.W.W.WaF.WaF.W.W.W.W.W.W.W.W.W.x.W.x.x.W.x.W.x.W.x.x.x.W.x.W`O.W.W.W.WaF.WaF.W.W.WaF.WaF.WaF.W.W.W.W.W.p````",
"``.p.W.W.W.W.W.W.WaF.WaF.W.W.W.W.W.W.W.W.W.x.W.x.x.W.x.x.x.x.x.x.x.x.x.x.x.x.W.x.W.x.W.W.W.W.W.W.WaF.W.W.W.W.W.W.WaF.WaF.W.p````",
"``.W.WaF.WaF.WaF.W.W.W.WaF.WaF.W.W.W.W.x.W.x.x.W.x.x.x.x.x.x.x.x.x.x.x.x.x.x.x.x.x.x.x.W.x.W.W.W.W.W.WaF.WaF.WaF.W.W.W.W.W.W.W``",
".p.W.W.W.W.W.W.WaF.W.p.W.W.W.W.W.W.x.W.x.x.x.x.x.x`F.x.x.x`F.x`F`F.x`F.x.x.x.x.x.x.x.x.x.W.x.W.W.W.W.W.WaF.W.W.WaF.WaF.WaF.W.W``",
".W.WaF.WaF.WaF.W.WaF.WaF.W.W.W.W.x.W.x.x.x.x.x.x`F`F`F`F`F`F`F`F`F`F`F`F`F`F`F`F.x.x.x.x.x.x.x.W.x.W.W.W.W.W.paF.W.W.W.W.W.W.W.p",
".W.W.W.W.WaF.W.WaF.W.W.W.W.W.x.x.x.x.x.x.x`F`F`F`F`F`F`F`F`F`F`F`F`F`F`F`F`F`F`F`F.x.x.x.x.x.x.x.W`O.W.W.WaF.W.W.WaF.WaF.W.W.paF",
".W.WaF.WaF.W.W.W.W.W.W.W.W.x.W.x.x.x.x`F`F`F`F`F`F`F`F`W`W`W`W`W`W`W`W`F`F`F`F`F`F`F`F`F.x.x.x.x.x.W.x.W.W.W.WaF.W.W.W.W.paF.W.W",
".W.W.W.W.W.WaF.W.paF.W.W.x.x.x.x.x.x`F`F`F`F`F`F`W`W`W`W`W`W`W`WaM`F`W`saTaN`W`F`F`W`F`F`F.x.x.x.x.x.W.x.W.W.W.W.W.paF.W.W.W.WaF",
".W.WaF.WaF.W.WaF.W.W.x`O.x.x.x.x.x`F`F`F`F`F`W`W`W`W`W`W.s`W.s`W#v.b.Iaa#U#Vac.DaZ`F`F`F`F`F`F.x.x.x.x.W.x.W.W.WaF.W.WaF.W.W.W.W",
".W.W.W.W.WaF.W.W.W`O.W.x.x.x.x`F`F`F`F`W`W`W`W`W`W.s.s.s.s.saN.3`H.K.Q.Q.Q.Q.K.V`4aTaM`W`W`F`F`F`F.x.x.x.x.W.W.W.W.W.W.WaF.W.W.W",
".WaF.WaF.W.W.W.W.W.x.x.x.x.x.x`F`F`W`W`W`W`W.s.s.s.s.s.s.s...3.c.Q.Q.Q.Q.Q.Q.Q.Q.V`w.JaM`W`W`F`F`F.x`F.x.x.x.W.x.WaF.W.W.W.WaF.W",
".W.W.W.WaF.W.W.W.W.x.W.x.x`F`F`F`W`F`W`W`W.s.s.s.s`g.s`M.w.b.#.Q.Q.Q.Q.Q.Q.Q.Q.Q.Q.V#I.taM`W`W`F`F`F.x.x.x.x.W.W.W.W.WaF.W.W.W.p",
".W.WaF.W.W.W.W.W.x.x.x`F`F`F`F`W`W`W`W.s.s.s.s.s`g`I`I`L`4`Z.Q.Q.Q.Q.Q.Q.Q.Q.Q.Q.Q.Q#d`b`F`W`W`W`F`F`F.x.x.x.x.x.W.W.W.WaF.W.W.W",
".W.W.WaF.W.W.W.x.x.x.x.x`F`F`W`F`W.s.s.s.s.s.s`M`I`I.Dap`Z.Q.Q.Q.Q.Q.Q.Q.Q.Q.Q.Q.Q.Q.caz.JaM`W`W`W`W`F`F.x.x.x.x.W.x.W.W.W.WaF.W",
".WaF.W.W.W.W.x.W.x.x`F`F`F`W`W`W`W.s.s.s.s`M`M.E`I#f`w.Q.Q.Q.Q`A#G.N.M.M.h`o.Q.Q.Q.Q`ZaH#n`W.s`W`W`W`F`F`F.x.x.x.W.x.W.WaF.W.W.p",
".W.W.W.W.W.W.x.x.x.x`F`F`F`W`W`W.s.s.s.s`M`I`M`I#0`w.K.Q.Q.Q#G.A.e.6.R`0.v.v`f.Q.Q.Q.Q#i#L`G.s.saM`W`W`F`F`F.x.x.x.W.W.W.W.W.W.W",
".W.W.p.W.W.x.W.x.x`F`F`F`W`F`W.s.s.s.s`M`M.E`I.E`4.K.Q.Q`Z#kax.T#n.JaQ.q..aS.v.I.Q.Q.Q`v#w.waM`W`W`W`W`F`F`F.x.x.x.x.W.W.W.W.W.W",
".WaF.W.W`O.W`F.x.x`F`F`F`W`W.s.s.s.s`M.E`I.E`I#5.V.K.Q`A`Cax#N.J`I#8`k`k`k`I#f.M.#.Q.Q`TaDaS#Q.s.s`W`W`W`F`F`F.x.x.x.W.W.W.W.WaF",
".W.W.W.W.W.x.x.x`F`F`F`W`W.s`W.s.s`M`I`M.E`I#H#V.V.QaV`C`x#c.t`I`k.1`k`k`k`k`k#n#I.Q.Q`ZaD#h#X#6aN.s`W`W`W`F`F`F.x.x.x.W.W.W.W.W",
".W.W.W.W.x.x.x.x`F`F`F`W`W.s.s.s`M`I`M.E.E`I#B.V#dag#k#ka0aQ.E.1.1.1.1.1.1`k`kat.B#1.Q.Q`4.#.Q#naU`W.s`W`F`F`F.x.x.x.W.x.W.W.W.W",
".W.W.W.W.x.x.x.x`F`F`W`W`W.s.s.s`M`M.E.E`I`n`oao#M.Z.A`p`G.E.S.1.S.1.1.1.1.1`k`k#i.l.Q.Q.Q.Q#U#yasaZ`W`W`W`W`F`F.x.x.x.W.x.W.W.W",
".W.W.W.x.W.x.x`F`F`F`W`W.s.s.s`M`I.E.E.E#8.8#U`Naz.0aj.G.E.S.S.S.S.S.S.1`2`k#H#t#aaV.K.Q#V.N`S.ua5`F.s`W`W`W`F`F`F.x.x.x.W.W.W.W",
".W.W.W.W.x.x.x`F`F`W`W`W.s.s.s`M`M.E.E`I#H`o.I`p`Raj.a`I.1.S.S.S.S.S`2.S##a`an.Q.K.K.K.K.3`3#C.X`F`W.s.s`W`W`F`F.x`F.x.W.x.W.W.W",
".W.W.W.x.x.x.x`F`F`W`W`W.s.s`g`I`M.E.E#8#5.faE`p.0`r.t`k.S.S.S.S`2aW#l#b`Z.K.K#d#3.L.f.V#i`K.J.s`I`g.s.s`W`W`W`F`F.x.x.x.W.W.W.W",
".W.W.x.W.x.x`F`F`F`W`W`W.s.s`I`M.E.E.E`k`8a6.h`R`6.G`I.S.S.S.S#s#o#a.K.V`H#z#3`7aj.M.f.V#r`r.G`I`M`I.s.s`W`W`W`F`F.x.x.x.W.x.W.W",
".W.W.W.x.x.x.x`F`F`W`W.s.s.s`M`M.E.E`I#E#1.m`N.0.daQ`k.S`D.g#.#Aan#I#T`7`7aA`XalaNa0aIag`K#C.5`I`M.s.s.s.s`W`F`F`F.x.x.x.W.W.W.W",
".W.W.x.W.x.x`F`F`W`W`W.s.s.s`M`I.E.E#8`Q.faE.PaY.aaMaW#l#p.##Da0`X.y`j`S`K.5`I`k.oai`q.k.O`d#S`M`M`I`g.s`W`W`W`F`F`F.x.x.x`O.W.W",
".W.W.W.x.x.x`F`F`F`W`W.s.s.s`M`M.E.E.E`8a6`BaY#W`y#o#`.#apaB`5.Y`S#u.aaQ`I.S.S.S.o.R.i`j`a.7aZ`I`I`I.s.s.s`W`W`F`F.x.x.x.W.x.W.W",
".W.W.x.x.x.x`F`F`F`W`W.s.s`g`I.E.E`I`n#U#G`NaxadaRaR.h`maLa7`5.OaT.E`2.S.S.S`2`2#Hai`S#W#Z#4aQ.qat`M.s.s.s`W`W`F`F`F.x.x.x.W.W.W",
".W.W.W.x.x.x`F`F`F`W`W.s.s`I`M`I.E`Iau.f#k`B.m`w`paG.2#2`d.GaQ`k`2`Daf#j#s##ay#laX.h`6`uam#Da4#`#B#S.s.s`W`W`W`F`F.x.x.x.W.x.W.W",
".W.W.x.W.x.x`F`F`W`W`W.s.s.s`M`I`I`n.z.c`B`B`p.M`Ra8.v`b#Rah#.#b#p#P#aan#A.#`o`oaR.e`c.A`V.4.4`Vas#J`W.s.s`W`W`F`F`F.x.x.x.W.W.W",
".W.W.x.W.x`F.x`F`F`W`W.s.s`g`Iau.z#1.cae`B`N`p.M.I.##K`T#D#D`f`4.h.Ba0`E.vaq`u`6aO.0`1`j`c.y.y.Y`YaU`W.s.s`W`W`F`F.x.x.x`O.W`O.W",
".W.W.W.x.x.x`F`F`F`W`W`W.s.s`M#N.cao`x.L`B`N`R.M`E#W.F`m`5a2a2`l`l`l.2.2`z`z`z.uaK.A`#aJ.ua2`U`d.7`t`W.s`W`W`W`F`F`F.x.x.x.W.W.W",
".W.W.x.W.x.x`F`F`F`W`W.s.s.s`I#q`B.Z.L.L.Naj`c.y.YaK.C.2`l.r.ra#`d.7a.a.a5.a#F.n`p`1`1`daq.5aQ`g`W.s.s.s`W`W`W`F`F.x.x.x.W.W.W.W",
".W.W.W.x.x.x.x`F`F`W`W`W.s`g`I`s`6.H`B.L`N.i`5.Oa5al.G`G.5aNaQ.E.q.E.E`k`k`k#8.D.N`7aOa2#raM.E`M`M.s.s.s`W`W`W`F`F.x.x.x`O.W.W.W",
".W.W.W.x.W`F.x`F`F`F`W`W.s.s.s`M`G#wad`C.PaA`PaM`k`k`k`2.S.S.S.S.S.S.S.S.S.1.S#m`1aw`5.F.n.s`I`M.s`g.s.s`W`W`F`F.x.x.x.x.W.x.W.p",
".W.W.W.x.x.x.x`F`F`F`W`W.s.s.s`M`I`Lae`C.P`j`P`I.1.1.1.S.1.S.S.S.S.S.S.1.1`2#E`N`#`7`U#Y#S`I.E`M`I.s.s`W`W`W`F`F`F.x.x.x.W.W.W.W",
".W.W.W.W.W.x.x.x`F`F`W`W`W.s.s`I`I`L.m.N.P.A.7`I`k.1.1.1.1.1.S.1.1.1.1.S.1.1#h.N`7.0a2#y`W.E`M.s.s.s.s`W`W`W`F`F.x.x.x.W`O.W.W.p",
".W.W.W.W.x.x.x`F`F`FaZ`W`W.s.s.s.s#q.e`CaY.i#C.s`k.1`k.1.1.1.1.1.1.S.1.1`k`naz`1`7.2`u.a.s`I`I`g`I.s`W.s`W`F`F`F.x.x.x`O.W.W.W.W",
".W.W.W.W.x.W.x.x`F`F`F`W`W`W.s.s`I#q.e.A`z.Ca..s.E`k.1`k.1.1.1.1.1`k.1`k`k#maA`#`j.raq.X`I`M`I.s.s.s`W`W`F`F`F.x.x.x`O.x.W.W.W.p",
".W.W.W.W.W.x.x.x.x`F`F`F`W`W.s.s.s.w`p`z.C`U.X.s`k`k.E.1`k`k`k`k`k.1`k.1`k#ea1a1aLaK`P.s`I.s.s.s.s`W`W`W`W`F`F.x.x.x.W.W.W.W.W.W",
".W.W.W.W.W.x.W`F.x`F`F`F`W`W`W.s.s#v`5a7`d.X.s.E.E.E`k.E.1.E.1.E.1.E`k.E`k.E#W.y.ra7#S.s`I`g`I.s.s`W`W`F`F`F.x.x.x.x.W.x.W.W.W.p",
".W.W.W.W.W.W.x.x.x.x`F`F`F`W`W`WaM..aKa.`F.s.E.E.E.E.E.E.E.E.E`k.E.E.1.E.E.E.Ja7a7`PaM.s`I.s.s`W`W`W`W`F`F`F.x.x.x.W.x.WaF.W.W.W",
".W.WaF.W.W.W.x.W.x.x`F`F`F`W`W`W.saQaT`F`W`I.s.E.E.E.E.E.E.E.E.E`k.E.E.E.E.E.EakaJ.X.s.s.s.s.s.s`W`W`F`F`F.x.x.x.x.W.W.W.W.W.W.p",
".W.W.W.W.W.W.W.x.x.x.x.x`F`F`W`W`W`W.s`W.s`g`I.s`M`M.E.E.E.E.E.E.E.E.E`M.E`M`M.saQ`W.s.s.s.s`W`W`W`W`F`F`F.x.x.x.W`O.W.W.W.W.W.p",
".W.WaF.W.W.W.W.x.W.x.x`F.x`F`F`W`W`W.s.s.s.s.s`M`I.s`M`M`M.E`M.E`M`M`M`M`M`I`I.s.s.s.s.s.s`W`W`W`F`F`F.x.x.x.x.W.x.W.W.WaF.W.WaF",
".W.W.W.WaF.W.W.W.x.x.x.x`F`F`F`F`W`F`W`W.s.s.s.s.s`g`I.s`I`g`I`M`M`I`M`I.s`M.s.s.s.s.s`W`W`W`W`W`F`F`F.x.x.x.x.W.W.W.W.W.W.W.W.p",
".W.WaF.W.W.W.W.W.W.x.W.x.x.x`F`F`F`W`W`W`W`W.s.s.s.s.s.s.s`I.s.s.s`g`I.s.s.s.s.s.s.s`W.s`W`W`W`F`F.x.x.x.x`O.W.x.W.W.WaF.WaF.W.W",
".W.W.W.WaF.W.W.W.W`O.W.x.x.x.x`F`F`F`F`W`W`W`W`W.s.s.s.s.s.s`g.s`I.s.s.s.s.s.s`W`W`W`W`W`W`F`F`F.x`F.x.x.x.W.W.W.W.WaF.W.W.W.p.W",
".W.WaF.W.W.WaF.W.W.W.x.W.x.x.x.x`F`F`F`F`W`W`W`W`W`W`W.s`W.s.s.s.s`W.s.s`W`W`W.s`W`W`W`F`F`F`F.x.x.x.x`O.W.x.W.W.W.W.W.WaF.W.W.p",
".W.W.WaF.W.W.W.W.W.W.W.x.W.x.x.x.x.x`F`F`F`F`F`W`W`W`W`W`W`W`W`W`W.s`W`W`W`W`W`W`W`F`F`F`F`F.x.x.x.x.x.W.x.W.W.W.WaF.W.W.W.W.W.W",
".W.W.W.WaF.WaF.W.W.W.W.W.x.W.x.x.x.x`F.x`F`F`F`F`F`F`W`W`W`W`W`W`W`W`W`W`W`W`W`F`F`F`F`F.x.x.x.x.x`O.W.x.W.W.W.W.W.WaF.WaF.W.p.W",
".W.WaF.W.W.W.WaF.WaF.W.W.W.W.x.W.x.x.x.x`F.x`F`F`F`F`F`F`F`W`F`W`F`F`F`W`F`F`F`F`F`F.x`F.x.x.x.x.W.x.W.W.W.WaF.WaF.W.W.W.W.W.W.W",
".W.W.W.paF.W.W.W.W.W.WaF.W.W.W.x.W.x.x.x.x.x`F.x`F`F`F`F`F`F`F`F`F`W`F`F`F`F`F.x`F.x.x.x.x.x`O.W.x.W.W.W.W.W.W.W.WaF.WaF.W.paF.W",
".W.WaF.W.WaF.WaF.W.paF.W.W.W.W.W.x.W.x`O.x.x.x.x.x.x`F.x`F`F`F`F`F.x`F.x`F.x.x.x.x.x.x.x`O.W.x.W.W.W.W.W.WaF.WaF.W.W.W.WaF.W.W`e",
"`J.W.W.W.W.W.W.WaF.W.W.W.W.W.W.W.W.W.W.x.W.x.x.x.x.x.x.x.x.x.x.x.x.x.x.x.x.x.x.x.x.x`O.x.W.x.W.W.W.W.W.WaF.W.W.WaF.WaF.W.W.W.W``",
"``.W.W.WaF.WaF.W.W.WaF.WaF.W.WaF.W.W.W.W.x.W.x.W.x.x.x.x.x.x.x.x.x.x.x.x.x.x.x`O.x.W.W.x.W.W.W.W.W.W.W.W.W.WaF.W.W.W.W.W.W.W`e``",
"````.W.W.W.W.WaF.W.W.W.W.WaF.W.W.W.W.W.W.W.W.W.x.W`O.W.x.W.x`O.x.x.W.x.W.x.W`O.W.x.W.W.W.W.W.W.W.W.WaF.WaF.W.W.WaF.WaF.W.W.p````",
"``````.W.W.W.W.WaF.WaF.W.W.W.WaF.W.W.W.W.W.W.W.W.W.W.x.W`O.W.W.W.W.x.W.x.W.W.W.W.W.W.W.W.W.W.W.WaF.W.W.W.WaF.W.W.W.W.W.W.W``````",
"````````.W.WaF.W.W.W.W.WaF.W.W.W.WaF.W.W.W.W.W.W.W.W.W.W.W.W.x.W.W.W.W.W.W.W.W.W.W.W.W.W.W.WaF.W.W.WaF.W.W.W.WaF.W.W.W`J````````",
"````````````.p.W.WaF.W.W.W.WaF.W.W.W.W.W.W.W.W.W.W.W.W.W.W.W.W.x.W.W.W.W`O.W.W.W.W.W.W.W.W.W.W.W.W.W.W.WaF.W.WaF.W`J````````````"
};
